# xmcd
#
# Track frame offsets:
#	150
#	13700
#	26132
#	38290
#	52729
#	68894
#	79710
#	91745
#	104452
#	116516
#	127946
#	151912
#
# Disc length: 2282 seconds
#
# Revision: 0
# Processed by: cddbd v1.5.2PL0 Copyright (c) Steve Scherf et al.
# Submitted via: EasyCDDAExtractor 11.1.0.1
#
DISCID=8208e80c
DTITLE=Hapn's - Country heart
DYEAR=1900
DGENRE=country
TTITLE0=Three days
TTITLE1=Folsom prison blues
TTITLE2=Waltz across Texas
TTITLE3=Your cheating heart
TTITLE4=Sweet dreams
TTITLE5=Country heart
TTITLE6=Some broken hearts
TTITLE7=Helly Mary Lou
TTITLE8=Ring of fire
TTITLE9=It's so easy
TTITLE10=Milk cow blues
TTITLE11=Unchained melody
EXTD=
EXTT0=
EXTT1=
EXTT2=
EXTT3=
EXTT4=
EXTT5=
EXTT6=
EXTT7=
EXTT8=
EXTT9=
EXTT10=
EXTT11=
PLAYORDER=
